<svg xmlns="http://www.w3.org/2000/svg" width="16.505" height="22.007" viewBox="0 0 16.505 22.007"><g transform="translate(-63.997 0)"><g transform="translate(63.997 6.602)"><path d="M79.952,153.593H75v1.1h4.4v13.2H65.1v-13.2h4.4v-1.1H64.547a.55.55,0,0,0-.55.55v14.3a.55.55,0,0,0,.55.55H79.952a.55.55,0,0,0,.55-.55v-14.3A.55.55,0,0,0,79.952,153.593Z" transform="translate(-63.997 -153.593)"/></g><g transform="translate(68.398 0)"><g transform="translate(0)"><path d="M173.932,3.387l-3.3-3.23a.55.55,0,0,0-.778.009l-3.292,3.22a.55.55,0,1,0,.769.786L169.7,1.858V13.682a.55.55,0,0,0,1.1,0V1.858l2.366,2.315a.55.55,0,1,0,.769-.786Z" transform="translate(-166.395 0)"/></g></g></g></svg>