<svg xmlns="http://www.w3.org/2000/svg" width="44" height="44" viewBox="0 0 44 44"><defs><style>.a{fill:#4267b2;}.b{fill:#fff;}</style></defs><g transform="translate(0 0)"><path class="a" d="M41.571,0H2.426A2.428,2.428,0,0,0,0,2.429V41.573A2.428,2.428,0,0,0,2.428,44H41.571A2.428,2.428,0,0,0,44,41.572h0V2.427A2.428,2.428,0,0,0,41.571,0Zm0,0" transform="translate(0 0)"/><path class="b" d="M219.59,114.679V97.663h5.736l.859-6.66h-6.6V86.761c0-1.924.534-3.235,3.293-3.235h3.5V77.586a47,47,0,0,0-5.124-.262c-5.07,0-8.54,3.094-8.54,8.778V91H207v6.66h5.715v17.015Zm0,0" transform="translate(-189.211 -70.679)"/></g></svg>