<svg xmlns="http://www.w3.org/2000/svg" width="32.588" height="29.847" viewBox="0 0 32.588 29.847"><defs><style>.a{fill:#fff;}</style></defs><g transform="translate(-380.693 461.223)"><path class="a" d="M394.848-403.7c-3.219,0-6.438.008-9.657,0a4.261,4.261,0,0,1-4.5-4.526q-.007-6.86,0-13.72a4.159,4.159,0,0,1,4.5-4.474c1.792.074,3.277-.194,4.451-1.713a3.369,3.369,0,0,1,2.746-1.143c1.754-.009,3.508-.015,5.261,0a1.368,1.368,0,0,1,1.491,1.427,1.394,1.394,0,0,1-1.528,1.4c-1.6.012-3.2.023-4.8,0a1.887,1.887,0,0,0-1.532.645c-.312.345-.65.668-.989.989a4.157,4.157,0,0,1-2.943,1.2c-.755,0-1.51-.012-2.264.007a1.447,1.447,0,0,0-1.563,1.59q-.008,6.96,0,13.92a1.38,1.38,0,0,0,1.532,1.526q9.823.013,19.647.006c1.039,0,1.558-.554,1.561-1.645.009-3.108,0-6.216.008-9.324a2.913,2.913,0,0,1,.106-.915,1.378,1.378,0,0,1,1.486-.876,1.391,1.391,0,0,1,1.226,1.293c.033.553.011,1.11.011,1.665q0,4.1,0,8.192a4.265,4.265,0,0,1-4.475,4.481C401.375-403.689,398.111-403.7,394.848-403.7Z" transform="translate(0 -27.682)"/><path class="a" d="M433.967-368.968a7.126,7.126,0,0,1,7.156-7.064,7.135,7.135,0,0,1,7.07,7.155,7.144,7.144,0,0,1-7.161,7.071A7.133,7.133,0,0,1,433.967-368.968Zm11.353.028a4.251,4.251,0,0,0-4.21-4.252,4.3,4.3,0,0,0-4.3,4.25,4.253,4.253,0,0,0,4.2,4.262A4.2,4.2,0,0,0,445.32-368.939Z" transform="translate(-46.176 -73.841)"/><path class="a" d="M545.033-456.962c0-.963-.008-1.823,0-2.683.011-.988.543-1.576,1.407-1.577a1.411,1.411,0,0,1,1.423,1.57c.009.863,0,1.727,0,2.693.981,0,1.926-.006,2.871,0a1.172,1.172,0,0,1,1.232.83,1.855,1.855,0,0,1-.14,1.353,1.846,1.846,0,0,1-1.22.617,26.65,26.65,0,0,1-2.744.028c0,.889,0,1.744,0,2.6-.007,1.012-.557,1.654-1.41,1.663s-1.411-.62-1.422-1.64c-.008-.8-.007-1.6-.013-2.394a1.372,1.372,0,0,0-.065-.229c-.887,0-1.808.014-2.728,0a1.393,1.393,0,0,1-1.454-1.4,1.361,1.361,0,0,1,1.429-1.418C543.108-456.979,544.014-456.962,545.033-456.962Z" transform="translate(-138.752)"/></g></svg>