<svg xmlns="http://www.w3.org/2000/svg" width="46" height="46" viewBox="0 0 46 46"><defs><style>.a{fill:#e5e5e5;}.b{fill:#fbbb00;}.c{fill:#518ef8;}.d{fill:#28b446;}.e{fill:#f14336;}</style></defs><g transform="translate(-1140 -198)"><rect class="a" width="46" height="46" rx="3" transform="translate(1140 198)"/><g transform="translate(1149.409 207.409)"><path class="b" d="M6.252,147.7l-.982,3.666-3.589.076a14.13,14.13,0,0,1-.1-13.172h0l3.2.586,1.4,3.176a8.418,8.418,0,0,0,.079,5.668Z" transform="translate(0 -130.649)"/><path class="c" d="M275.177,208.176a14.1,14.1,0,0,1-5.028,13.635h0l-4.025-.205-.57-3.556a8.407,8.407,0,0,0,3.617-4.293h-7.543v-5.58h13.549Z" transform="translate(-247.212 -196.705)"/><path class="d" d="M51.764,317.465h0a14.11,14.11,0,0,1-21.255-4.315l4.571-3.742a8.389,8.389,0,0,0,12.089,4.3Z" transform="translate(-28.828 -292.36)"/><path class="e" d="M50.156,3.247l-4.57,3.741A8.388,8.388,0,0,0,33.22,11.381l-4.6-3.762h0A14.109,14.109,0,0,1,50.156,3.247Z" transform="translate(-27.047)"/></g></g></svg>