<svg xmlns="http://www.w3.org/2000/svg" width="44" height="32" viewBox="0 0 44 32"><defs><style>.a{fill:#686767;}.b{fill:#fff;}</style></defs><g transform="translate(-714 -366)"><rect class="a" width="44" height="32" rx="10" transform="translate(714 366)"/><g transform="translate(726 357.012)"><g transform="translate(0 15.988)"><g transform="translate(0 0)"><path class="b" d="M14.476,15.988H1.728A1.73,1.73,0,0,0,0,17.716v9.216a1.73,1.73,0,0,0,1.728,1.728H3.456v2.88a.577.577,0,0,0,.983.407l3.118-3.118a.575.575,0,0,1,.407-.169h6.512A1.73,1.73,0,0,0,16.2,26.932V17.716A1.73,1.73,0,0,0,14.476,15.988ZM2.88,19.444h8.14a.576.576,0,1,1,0,1.152H2.88a.576.576,0,0,1,0-1.152ZM8.716,25.2H2.88a.576.576,0,1,1,0-1.152H8.716a.576.576,0,1,1,0,1.152Zm4.608-2.3H2.88a.576.576,0,0,1,0-1.152H13.324a.576.576,0,0,1,0,1.152Z" transform="translate(0 -15.988)"/></g></g><g transform="translate(7.051 18.292)"><path class="b" d="M194.512,75.989h-.568v8.64a2.89,2.89,0,0,1-2.888,2.88h-6.2l-1.229,1.144h4.883l3.287,3.295a.576.576,0,0,0,.983-.407V88.653h1.728a1.723,1.723,0,0,0,1.728-1.72V77.717A1.73,1.73,0,0,0,194.512,75.989Z" transform="translate(-183.631 -75.989)"/></g></g></g></svg>