<svg xmlns="http://www.w3.org/2000/svg" width="18.843" height="18.843" viewBox="0 0 18.843 18.843"><defs><style>.a{fill:#686767;}</style></defs><path class="a" d="M9.422,18.843a9.422,9.422,0,1,1,9.422-9.422A9.432,9.432,0,0,1,9.422,18.843Zm0-17.666a8.244,8.244,0,1,0,8.244,8.244A8.253,8.253,0,0,0,9.422,1.178Zm0,0"/><path class="a" d="M136.833,241.178h-8.244a.589.589,0,0,1,0-1.178h8.244a.589.589,0,0,1,0,1.178Zm0,0" transform="translate(-123.289 -231.167)"/><path class="a" d="M240.589,137.422a.589.589,0,0,1-.589-.589v-8.244a.589.589,0,1,1,1.178,0v8.244A.589.589,0,0,1,240.589,137.422Zm0,0" transform="translate(-231.167 -123.289)"/></svg>