<svg xmlns="http://www.w3.org/2000/svg" width="24.991" height="14.578" viewBox="0 0 24.991 14.578"><g transform="translate(0 -106.662)"><g transform="translate(0 106.662)"><g transform="translate(0 0)"><path d="M24.9,113.655c-.2-.286-4.926-6.993-12.4-6.993-6.416,0-12.132,6.669-12.373,6.953a.523.523,0,0,0,0,.673c.241.284,5.957,6.953,12.373,6.953s12.132-6.669,12.373-6.953A.521.521,0,0,0,24.9,113.655ZM12.5,120.2c-5.143,0-10.033-4.9-11.275-6.248,1.24-1.344,6.125-6.248,11.275-6.248,6.018,0,10.265,4.9,11.3,6.22C22.6,115.224,17.683,120.2,12.5,120.2Z" transform="translate(0 -106.662)"/></g></g><g transform="translate(8.331 109.786)"><path d="M174.827,170.662a4.165,4.165,0,1,0,4.165,4.165A4.169,4.169,0,0,0,174.827,170.662Zm0,7.289a3.124,3.124,0,1,1,3.124-3.124A3.128,3.128,0,0,1,174.827,177.951Z" transform="translate(-170.662 -170.662)"/></g></g></svg>